#!OML:ASF E:\Steps\Project 1\Capture day 1\Session 2\Subject.ASF
:FULLY-SPECIFIED
:DEGREES
223
root 13.2629 17.1234 18.6421 -155.831 3.71753 180.395
lowerback -19.0693 -2.34112 -7.2028
upperback 1.83696 -1.11919 -1.30556
thorax 12.9884 -0.91445 2.31106
lowerneck -0.844486 -0.859994 -0.761576
upperneck 23.9276 0.220639 4.05643
head 7.45848 1.17243 1.58071
rclavicle -2.38542e-015 -1.35174e-014
rhumerus -34.0873 -9.50258 -76.1893
rradius 44.8394
rwrist -7.86791
rhand -8.29501 -51.438
rfingers 7.12502
rthumb 17.625 -80.6591
lclavicle -2.38542e-015 -1.35174e-014
lhumerus -33.0334 2.71663 74.7826
lradius 30.9742
lwrist 1.33389
lhand -21.5349 -10.2827
lfingers 7.12502
lthumb 4.85792 19.6417
rfemur -43.0859 13.668 7.2152
rtibia 72.5278
rfoot -50.939 -2.32086
rtoes -11.3736
lfemur -34.7697 -8.37571 -13.0428
ltibia 22.4307
lfoot -8.82354 4.42436
ltoes -44.4239
224
root 13.226 17.1378 18.6231 -156.031 3.43586 180.415
lowerback -18.833 -2.43112 -7.50603
upperback 2.16607 -1.18209 -1.31539
thorax 13.2502 -0.984124 2.44776
lowerneck -0.95839 -0.901348 -0.830041
upperneck 23.8646 0.114634 4.19758
head 7.45989 1.11826 1.63057
rclavicle -4.37326e-015 -4.53229e-014
rhumerus -33.8024 -9.8798 -76.2381
rradius 44.3118
rwrist -7.33337
rhand -7.0013 -50.2184
rfingers 7.12502
rthumb 18.8696 -79.3231
lclavicle -4.37326e-015 -4.53229e-014
lhumerus -32.2994 3.06352 74.6784
lradius 31.0249
lwrist 0.781927
lhand -22.0675 -9.84187
lfingers 7.12502
lthumb 4.34362 20.0936
rfemur -42.9042 13.2442 7.79035
rtibia 69.1993
rfoot -45.1424 -11.2761
rtoes -32.3121
lfemur -34.5552 -8.64879 -13.1084
ltibia 22.3703
lfoot -8.60954 4.11466
ltoes -44.1707
225
root 13.1923 17.1562 18.6041 -156.311 3.40393 180.33
lowerback -18.5375 -2.46545 -7.9957
upperback 2.44974 -1.11953 -1.38417
thorax 13.4174 -1.00098 2.66423
lowerneck -0.900407 -0.919699 -0.889442
upperneck 23.7634 0.0489669 4.38018
head 7.41712 1.09133 1.69382
rclavicle 1.15295e-014 3.73715e-014
rhumerus -33.6482 -9.94088 -76.5567
rradius 44.1302
rwrist -7.66345
rhand -7.76646 -51.9999
rfingers 7.12502
rthumb 18.1335 -81.1746
lclavicle 1.15295e-014 3.73715e-014
lhumerus -31.748 3.16486 74.631
lradius 31.2894
lwrist 0.663471
lhand -22.3389 -9.45371
lfingers 7.12502
lthumb 4.0815 20.4869
rfemur -42.7743 13.5699 7.66341
rtibia 69.5499
rfoot -44.1107 -12.2823
rtoes -34.8918
lfemur -34.0953 -8.77689 -13.3545
ltibia 22.0828
lfoot -8.49241 3.83267
ltoes -42.8054
226
root 13.1572 17.1744 18.5825 -156.493 3.51243 180.294
lowerback -18.1741 -2.40128 -8.30441
upperback 2.58004 -0.967358 -1.5298
thorax 13.346 -0.945387 2.72446
lowerneck -0.967969 -0.964645 -0.817388
upperneck 23.9619 -0.000397519 4.4145
head 7.49657 1.08984 1.69513
rclavicle -2.8625e-014 -5.08889e-014
rhumerus -33.8548 -10.182 -76.822
rradius 43.9031
rwrist -7.55302
rhand -8.16102 -52.5212
rfingers 7.12502
rthumb 17.7539 -81.7308
lclavicle -2.8625e-014 -5.08889e-014
lhumerus -31.5064 2.75774 74.6356
lradius 31.8523
lwrist 1.08542
lhand -22.6095 -9.00532
lfingers 7.12502
lthumb 3.82017 20.9402
rfemur -42.7818 13.9834 7.4508
rtibia 69.8042
rfoot -43.1507 -12.4542
rtoes -36.1858
lfemur -33.5765 -8.72595 -13.6268
ltibia 21.6619
lfoot -8.42323 3.63183
ltoes -41.6693
227
root 13.116 17.1964 18.5615 -156.496 3.44671 180.42
lowerback -18.0519 -2.33339 -8.26333
upperback 2.71938 -0.871115 -1.65563
thorax 13.4227 -0.896072 2.58728
lowerneck -1.05371 -0.989203 -0.801858
upperneck 23.9592 -0.0700205 4.54985
head 7.51256 1.06803 1.73291
rclavicle -3.18055e-015 1.27222e-014
rhumerus -34.0537 -10.2813 -77.1353
rradius 43.7454
rwrist -7.40949
rhand -7.82451 -51.7845
rfingers 7.12502
rthumb 18.0777 -80.9644
lclavicle -3.18055e-015 1.27222e-014
lhumerus -31.1767 2.35222 74.6341
lradius 32.3995
lwrist 1.44334
lhand -23.1477 -8.58894
lfingers 7.12502
lthumb 3.30043 21.3653
rfemur -42.8307 14.1725 7.38507
rtibia 69.8052
rfoot -42.3331 -12.1886
rtoes -36.5348
lfemur -33.251 -8.86203 -13.656
ltibia 21.1792
lfoot -8.20938 3.74039
ltoes -42.2467
228
root 13.0726 17.2193 18.5431 -156.353 3.43038 180.573
lowerback -17.9952 -2.22839 -8.13785
upperback 2.74159 -0.733744 -1.82572
thorax 13.3939 -0.810518 2.36727
lowerneck -1.08632 -1.02568 -0.716255
upperneck 24.0577 -0.155145 4.78347
head 7.55325 1.06495 1.79312
rclavicle 1.11319e-014 -7.95139e-015
rhumerus -34.351 -10.289 -77.4666
rradius 43.59
rwrist -7.31637
rhand -7.44172 -50.95
rfingers 7.12502
rthumb 18.4459 -80.0954
lclavicle 1.11319e-014 -7.95139e-015
lhumerus -30.969 1.94461 74.5597
lradius 32.9189
lwrist 1.73961
lhand -23.708 -8.70087
lfingers 7.12502
lthumb 2.75932 21.261
rfemur -43.0788 14.3013 7.29151
rtibia 69.8169
rfoot -41.6426 -12.0747
rtoes -37.0045
lfemur -33.0927 -9.1506 -13.5877
ltibia 20.6809
lfoot -8.06666 4.08882
ltoes -42.7169
229
root 13.0308 17.2431 18.5204 -156.231 3.41885 180.651
lowerback -17.7588 -2.22544 -8.11059
upperback 2.59154 -0.748542 -1.92632
thorax 13.0778 -0.793164 2.24396
lowerneck -1.03058 -1.04949 -0.781341
upperneck 24.5306 -0.127895 4.91814
head 7.70079 1.12159 1.86407
rclavicle -2.74323e-014 -2.70347e-014
rhumerus -34.9976 -9.81616 -77.672
rradius 43.5736
rwrist -7.16104
rhand -7.52678 -50.3728
rfingers 7.12502
rthumb 18.3641 -79.526
lclavicle -2.74323e-014 -2.70347e-014
lhumerus -31.2609 1.70485 74.5201
lradius 33.6222
lwrist 2.19602
lhand -24.0899 -9.01822
lfingers 7.12502
lthumb 2.39056 20.9481
rfemur -43.3097 14.387 7.15893
rtibia 69.8921
rfoot -41.1251 -11.8704
rtoes -37.0851
lfemur -32.7453 -9.4725 -13.6059
ltibia 19.9475
lfoot -7.9514 4.40941
ltoes -42.3616
230
root 12.9913 17.2703 18.4958 -156.123 3.29044 180.796
lowerback -17.96 -2.20753 -8.06732
upperback 2.75359 -0.698979 -1.95983
thorax 13.3802 -0.778466 2.18799
lowerneck -0.992948 -1.15287 -0.808853
upperneck 24.2462 -0.33442 5.01769
head 7.60506 1.00794 1.87987
rclavicle 6.36111e-015 -1.11319e-014
rhumerus -35.2013 -9.77339 -77.8058
rradius 43.588
rwrist -6.75933
rhand -7.47427 -49.8064
rfingers 7.12502
rthumb 18.4146 -78.9548
lclavicle 6.36111e-015 -1.11319e-014
lhumerus -31.0124 1.39442 74.6184
lradius 34.3439
lwrist 2.82926
lhand -24.1675 -9.22428
lfingers 7.12502
lthumb 2.31562 20.7429
rfemur -43.4052 14.37 7.19457
rtibia 69.8342
rfoot -40.6031 -11.6976
rtoes -37.1603
lfemur -32.2685 -9.69105 -13.5484
ltibia 18.9459
lfoot -7.68712 4.6113
ltoes -41.6127
231
root 12.9474 17.2759 18.4956 -154.891 4.26322 181.603
lowerback -18.9998 -1.81666 -7.56143
upperback 2.43102 -0.221703 -1.88619
thorax 13.5571 -0.523793 2.12175
lowerneck -1.04594 -1.26465 -0.949537
upperneck 24.1416 -0.520922 5.07613
head 7.58576 0.900047 1.90799
rclavicle -3.57812e-015 -6.36111e-014
rhumerus -35.468 -9.71976 -77.8073
rradius 43.5806
rwrist -6.24351
rhand -7.13067 -49.2515
rfingers 7.12502
rthumb 18.7451 -78.3683
lclavicle -3.57812e-015 -6.36111e-014
lhumerus -31.0139 1.20461 74.8341
lradius 35.0963
lwrist 3.37931
lhand -24.1551 -9.60707
lfingers 7.12502
lthumb 2.32756 20.36
rfemur -45.5289 15.0203 6.99234
rtibia 70.3452
rfoot -40.0552 -11.5124
rtoes -38.2759
lfemur -33.0486 -9.03374 -12.7502
ltibia 18.2574
lfoot -7.64551 5.4682
ltoes -40.0793
232
root 12.9041 17.3039 18.4662 -154.975 3.71764 181.739
lowerback -19.0784 -1.92687 -7.30152
upperback 2.69737 -0.412136 -1.90229
thorax 13.9307 -0.609125 1.88977
lowerneck -1.04995 -1.23121 -0.855947
upperneck 23.6842 -0.549431 5.06466
head 7.43455 0.858493 1.87372
rclavicle -1.03368e-014 -3.97569e-014
rhumerus -35.4661 -9.67648 -78.0033
rradius 43.5441
rwrist -5.76378
rhand -7.00156 -48.9278
rfingers 7.12502
rthumb 18.8693 -78.0325
lclavicle -1.03368e-014 -3.97569e-014
lhumerus -30.7477 1.00268 74.902
lradius 35.8432
lwrist 3.94834
lhand -24.0385 -10.0699
lfingers 7.12502
lthumb 2.44022 19.8959
rfemur -44.9858 14.5969 7.33248
rtibia 69.9194
rfoot -39.6212 -11.8276
rtoes -39.1392
lfemur -32.6043 -9.6039 -12.601
ltibia 17.6851
lfoot -7.61895 5.56772
ltoes -39.5602
